<?xml version="1.0" encoding="UTF-8"?><svg id="Layer_2" xmlns="http://www.w3.org/2000/svg" width="432" height="432" viewBox="0 0 432 432"><g id="Layer_1-2"><circle cx="216" cy="216" r="216" fill="#ffb600"/><path d="m265.66,154.91l-21.54,122.19h-33.61l8.36-47.43h-53.55l-8.36,47.43h-33.72l21.54-122.19h33.72l-7.89,44.73h53.55l7.89-44.73h33.61Zm11.9,0l-5.42,30.72h28.8l-16.13,91.47h33.62l16.13-91.47h14.59c16.97,0,33.15-13.75,36.14-30.72h0s-107.73,0-107.73,0Zm-184.35,0l-6.88,38.99h0c18.62,0,36.38-15.1,39.66-33.72l.93-5.28h-33.72Zm-13.83,78.45l-7.71,43.73h33.72l13.66-77.45h0c-18.62,0-36.38,15.1-39.66,33.72Z" fill="#3d3935"/></g></svg>