<?xml version="1.0" encoding="UTF-8"?><svg id="Layer_2" xmlns="http://www.w3.org/2000/svg" width="432" height="95.45" viewBox="0 0 432 95.45"><g id="Layer_1-2"><path d="m268.58,77.88c.02.54.03.97.03,1.29,0,2.39-.43,4.59-1.29,6.59-.86,2-2.05,3.73-3.58,5.16-1.53,1.44-3.33,2.56-5.4,3.35-2.07.79-4.32,1.19-6.74,1.19-2.85,0-5.45-.48-7.83-1.45-2.37-.96-4.42-2.31-6.14-4.03-1.72-1.72-3.05-3.74-3.98-6.06-.93-2.32-1.4-4.83-1.4-7.53s.49-5.21,1.45-7.51,2.34-4.3,4.11-6.01c1.77-1.7,3.85-3.03,6.24-3.98,2.39-.95,5-1.42,7.85-1.42,1.97,0,3.84.26,5.64.79,1.79.53,3.42,1.25,4.9,2.16,1.47.91,2.71,1.97,3.69,3.16l-4.9,5.16c-.91-.88-1.86-1.62-2.84-2.24-.99-.62-2.03-1.09-3.14-1.42-1.11-.33-2.24-.5-3.4-.5-1.65,0-3.17.3-4.56.9-1.39.6-2.61,1.42-3.66,2.48-1.05,1.05-1.87,2.3-2.45,3.74-.58,1.44-.87,3-.87,4.69s.31,3.21.92,4.66c.61,1.46,1.46,2.72,2.53,3.79,1.07,1.07,2.33,1.91,3.77,2.53,1.44.61,2.98.92,4.64.92,1.19,0,2.31-.18,3.35-.53,1.03-.35,1.95-.85,2.74-1.5s1.4-1.42,1.85-2.29c.41-.81.6-1.68.63-2.58h-9.46v-6.59h17.07c.03.39.08.86.13,1.42.06.56.09,1.12.11,1.66Zm31.36,2.59l8.4,14.51-9.17-.05-7.45-13.22h-5.83v13.22h-7.64v-36.88h16.34c2.28,0,4.36.52,6.22,1.55s3.33,2.43,4.4,4.19c1.07,1.76,1.61,3.76,1.61,6.01s-.54,4.22-1.61,6.03c-1.07,1.81-2.54,3.24-4.4,4.29-.27.15-.58.22-.87.35Zm-14.05-5.19h8.33c.95,0,1.78-.22,2.5-.66s1.28-1.05,1.66-1.84.58-1.68.58-2.66c0-1.05-.23-1.97-.69-2.74s-1.12-1.38-2-1.82c-.88-.44-1.9-.66-3.06-.66h-7.33v10.38Zm65.07-6.48c.92,2.32,1.37,4.85,1.37,7.59s-.46,5.27-1.37,7.59c-.91,2.32-2.22,4.34-3.93,6.06-1.7,1.72-3.69,3.06-5.95,4-2.26.95-4.75,1.42-7.45,1.42s-5.25-.47-7.53-1.42c-2.28-.95-4.28-2.28-5.98-3.98-1.71-1.7-3.01-3.72-3.93-6.06s-1.37-4.87-1.37-7.61.46-5.32,1.37-7.64c.91-2.32,2.22-4.33,3.93-6.03,1.7-1.7,3.7-3.03,5.98-3.98,2.28-.95,4.78-1.42,7.48-1.42s5.24.47,7.51,1.42c2.27.95,4.25,2.28,5.95,4,1.71,1.72,3.01,3.74,3.93,6.06Zm-6.64,7.59c0-1.69-.27-3.23-.82-4.64-.55-1.41-1.29-2.63-2.24-3.66s-2.07-1.85-3.37-2.42c-1.3-.58-2.74-.87-4.32-.87s-2.97.29-4.27.87c-1.3.58-2.44,1.39-3.42,2.42s-1.73,2.26-2.24,3.66c-.51,1.4-.76,2.95-.76,4.64s.26,3.23.76,4.64c.51,1.41,1.26,2.63,2.24,3.66s2.12,1.84,3.42,2.42c1.3.58,2.72.87,4.27.87s3.02-.29,4.32-.87c1.3-.58,2.42-1.39,3.37-2.42s1.69-2.26,2.24-3.66c.54-1.4.82-2.95.82-4.64Zm40.73,3.9c0,1.48-.34,2.8-1.03,3.98-.69,1.18-1.62,2.12-2.79,2.82-1.18.7-2.48,1.05-3.93,1.05s-2.68-.35-3.82-1.05c-1.14-.7-2.05-1.64-2.71-2.82-.67-1.18-1-2.5-1-3.98v-22.29h-7.96v22.76c0,2.78.67,5.26,2,7.46,1.33,2.19,3.17,3.92,5.51,5.16,2.34,1.25,5,1.87,7.98,1.87s5.6-.62,7.96-1.87c2.35-1.25,4.19-2.97,5.51-5.16,1.32-2.2,1.98-4.68,1.98-7.46v-22.76h-7.69v22.29Zm46.95-10.38c0,2.28-.52,4.34-1.55,6.17-1.04,1.83-2.43,3.27-4.19,4.35s-3.74,1.61-5.95,1.61h-7.74v12.91h-7.91v-36.88h15.65c2.21,0,4.2.52,5.95,1.55s3.15,2.45,4.19,4.24c1.03,1.79,1.55,3.81,1.55,6.06Zm-8.12.05c0-.95-.2-1.77-.61-2.48-.4-.7-.94-1.26-1.61-1.69-.67-.42-1.42-.63-2.27-.63h-6.96v9.75h6.96c.84,0,1.6-.22,2.27-.66.67-.44,1.2-1.03,1.61-1.76s.61-1.58.61-2.53ZM16.74,0l-5.34,30.29h0c14.47,0,28.26-11.73,30.81-26.19l.72-4.1h-26.2Zm107.86,0l-6.13,34.75h-41.6L83,0h-26.19l-16.74,94.93h26.19l6.5-36.85h41.6l-6.5,36.85h26.11L150.71,0h-26.11Zm35.36,0l-4.21,23.87h22.38l-12.53,71.06h26.12l12.53-71.06h11.34C228.76,23.87,241.33,13.18,243.66,0h0s-83.7,0-83.7,0ZM5.99,60.95L0,94.93h26.2l10.61-60.17h0c-14.47,0-28.26,11.73-30.81,26.19Z" fill="#fff"/></g></svg>